<svg width="172" height="48" viewBox="0 0 172 48" fill="none" xmlns="http://www.w3.org/2000/svg">
<path fill-rule="evenodd" clip-rule="evenodd" d="M7.72542 1.10642C6.48742 1.70342 4.29042 4.61242 2.84342 7.56942C-2.44458 18.3784 -0.0405822 34.4974 7.43742 38.3644C13.8474 41.6794 21.5944 39.2434 24.1574 33.1084L25.6804 29.4634L26.9254 32.4244C29.7344 39.1044 33.7304 39.4754 37.1834 33.3774C39.0224 30.1304 39.4474 29.8054 39.4614 31.6354C39.4864 35.1304 43.1384 38.2124 46.3254 37.4294C47.7844 37.0714 50.1594 36.8054 51.6044 36.8384C54.0214 36.8934 54.3644 36.3674 55.9004 30.2534C56.8184 26.5984 58.3364 22.2084 59.2734 20.4964L60.9774 17.3854L61.4774 26.8854C61.9694 36.2344 62.0184 36.3904 64.5884 36.6884C66.9244 36.9594 67.2564 36.5894 67.7334 33.1884C68.4294 28.2254 72.3584 17.8854 73.5494 17.8854C74.0594 17.8854 74.4774 21.3854 74.4774 25.6624C74.4774 36.4724 77.4334 40.1204 83.5434 36.8504C84.8914 36.1284 86.0954 36.1454 87.5154 36.9054C90.4014 38.4504 93.1374 37.2754 94.6584 33.8384C96.1354 30.5014 97.4774 29.9744 97.4774 32.7304C97.4774 35.0814 100.544 37.8854 103.115 37.8854C104.204 37.8854 105.968 37.2444 107.036 36.4614C108.723 35.2244 109.196 35.2364 110.653 36.5494C113.195 38.8424 115.682 37.7944 118.183 33.3774L120.444 29.3854L120.461 33.1824C120.475 36.4064 120.008 37.2354 117.367 38.6824C111.32 41.9944 109.87 43.5834 111.078 45.5724C112.436 47.8084 116.773 48.4194 120.455 46.8944C123.103 45.7974 125.477 42.2804 125.477 39.4534C125.477 38.7174 126.561 37.4054 127.885 36.5374C129.993 35.1564 130.445 35.1424 131.508 36.4224C133.774 39.1534 135.477 38.1294 135.477 34.0344C135.477 29.8694 137.308 23.5624 138.341 24.1674C138.691 24.3724 140.4 25.1514 142.139 25.8984C144.381 26.8624 145.476 28.1304 145.901 30.2554C146.683 34.1674 149.214 36.8854 152.073 36.8854C154.622 36.8854 155.233 36.1784 157.671 30.4004L159.365 26.3854L159.421 30.4804C159.522 37.8554 165.617 40.2884 169.824 34.6324C171.252 32.7124 171.554 31.5624 170.823 30.8314C170.091 30.0994 169.269 30.5544 168.103 32.3344C165.259 36.6744 164.477 35.3184 164.477 26.0404C164.477 18.7414 164.157 16.9064 162.648 15.5404C161.642 14.6304 160.405 13.8884 159.898 13.8924C159.392 13.8964 158.234 16.9334 157.326 20.6424C153.763 35.1894 151.477 36.5124 151.477 24.0264C151.477 16.4804 150.559 13.8854 147.891 13.8854C147.238 13.8854 146.396 15.9374 146.02 18.4454C145.488 21.9944 144.964 22.9274 143.657 22.6564C141.953 22.3034 141.712 20.7004 142.923 17.7644C143.677 15.9374 140.896 12.5834 139.111 13.1664C138.487 13.3704 137.556 15.2094 137.041 17.2524L136.104 20.9674L135.041 17.6764C134.371 15.6044 133.236 14.2824 131.977 14.1064C130.128 13.8484 129.952 14.4904 129.653 22.5934C129.456 27.8994 128.864 31.6474 128.153 32.0894C127.295 32.6224 126.899 30.5354 126.688 24.3664C126.433 16.8834 126.152 15.7814 124.236 14.7564C122.74 13.9554 121.963 13.9264 121.718 14.6624C121.492 15.3404 120.333 15.1364 118.525 14.0984C116.226 12.7794 115.201 12.6904 113.135 13.6314C108.929 15.5474 106.991 19.5684 106.852 26.6654C106.724 33.1784 105.602 35.6984 103.428 34.3544C102.536 33.8034 102.377 31.3524 102.841 25.3134C103.363 18.5174 103.195 16.7464 101.906 15.4574C100.159 13.7104 98.4774 13.3924 98.4774 14.8084C98.4774 15.3164 97.1224 15.0564 95.4654 14.2294C88.6394 10.8244 83.0674 16.9674 83.7324 27.1654C83.9934 31.1654 83.6964 33.2884 82.7694 34.0584C80.5434 35.9054 79.9774 34.1154 79.9774 25.2214C79.9774 17.8924 79.7044 16.5274 77.9844 15.2684C74.7724 12.9174 72.1784 13.9874 69.8344 18.6304L67.6914 22.8744L67.0064 20.1304C66.1264 16.6024 63.6634 13.8854 61.3454 13.8854C59.2734 13.8854 56.9914 16.9764 55.8074 21.3854C55.0254 24.2934 54.9854 24.2474 54.4894 19.8854C54.0794 16.2794 53.5604 15.3254 51.8804 15.0864C49.9204 14.8064 49.7414 15.3874 49.1274 24.0394C48.5034 32.8274 47.4274 36.1694 45.7594 34.5004C45.3464 34.0874 45.0014 29.6694 44.9924 24.6834C44.9794 16.8844 44.7144 15.4614 43.0984 14.5014C41.6764 13.6564 41.1094 13.6884 40.7664 14.6344C40.4174 15.5924 39.8144 15.5344 38.1724 14.3844C36.9954 13.5594 35.2934 12.8854 34.3894 12.8854C31.2634 12.8854 27.4954 16.9294 26.3374 21.5264C25.5384 24.7014 24.8954 25.7034 24.1424 24.9504C22.3594 23.1674 21.7594 23.7194 21.1174 27.7354C20.3294 32.6644 16.9134 37.0944 14.2124 36.6894C7.51042 35.6864 4.66242 19.1954 9.20142 7.67342C10.5794 4.17542 13.8164 1.89142 15.2974 3.37142C15.6654 3.73942 16.1934 6.59342 16.4714 9.71342C16.9114 14.6494 17.2694 15.4264 19.2254 15.7044C24.2924 16.4244 24.2924 4.97042 19.2254 1.42142C16.7174 -0.335582 11.0384 -0.490582 7.72542 1.10642ZM120.091 21.0674C119.236 25.3384 115.762 32.8854 114.65 32.8854C112.188 32.8854 112.781 22.9234 115.552 17.7464C116.38 16.1994 116.932 16.0584 118.626 16.9644C120.26 17.8394 120.565 18.6944 120.091 21.0674ZM38.7644 21.0734C38.5214 25.2924 35.5814 32.0454 33.7274 32.6464C32.1134 33.1704 32.0214 24.4904 33.5944 19.9804C34.4454 17.5394 35.2184 16.8494 36.8444 17.0814C38.6284 17.3364 38.9424 17.9894 38.7644 21.0734ZM96.8604 18.4404C97.4774 20.0484 94.1984 30.5644 92.5724 32.1904C92.0664 32.6964 91.1074 32.7744 90.4414 32.3634C89.0864 31.5264 89.6234 24.2364 91.3794 19.6354C92.5354 16.6034 95.8754 15.8744 96.8604 18.4404ZM119.018 42.8184C118.656 43.4054 117.598 43.8714 116.668 43.8534C115.183 43.8254 115.212 43.6444 116.904 42.3644C118.959 40.8094 120.107 41.0564 119.018 42.8184Z" fill="black"/>
</svg>
